<svg xmlns="http://www.w3.org/2000/svg" viewBox="0 0 656 230" fill="#ea580c">
  <g transform="translate(0,230) scale(0.1,-0.1)">
    <path d="M1434 1652 c-39 -25 -36 -90 5 -111 14 -8 659 -11 2118 -11 1634 -1 2101 -3 2114 -13 37 -29 42 -9 -140 -657 -21 -74 -56 -197 -77 -272 -41 -150 -70 -199 -130 -224 -28 -12 -193 -14 -939 -14 -572 0 -913 4 -925 10 -46 25 -44 46 52 437 50 202 97 376 106 386 8 9 25 17 36 17 12 0 84 -44 161 -98 474 -332 569 -395 612 -408 59 -18 167 -18 226 0 42 12 149 84 664 440 105 73 128 101 112 143 -8 23 -38 43 -62 43 -8 0 -142 -89 -298 -197 -432 -299 -436 -301 -474 -309 -20 -3 -60 -4 -88 -2 -57 5 -37 -7 -337 203 -308 216 -414 288 -446 301 -77 32 -175 4 -220 -63 -14 -21 -55 -167 -119 -423 -107 -430 -108 -441 -58 -518 16 -24 47 -52 77 -69 l51 -28 930 0 930 0 48 22 c68 32 123 78 152 128 22 37 81 232 160 525 13 47 39 144 60 215 82 292 96 354 89 392 -12 70 -46 114 -111 147 -29 15 -219 16 -2150 16 -1165 0 -2123 -4 -2129 -8z"/>
  </g>
  <rect x="173" y="101" width="150" height="12" rx="6"/>
  <rect x="203" y="137" width="115" height="12" rx="6"/>
  <rect x="233" y="173" width="80" height="12" rx="6"/>
</svg>
